<svg version="1.1" xmlns="http://www.w3.org/2000/svg" xmlns:xlink="http://www.w3.org/1999/xlink">
<defs>
    <symbol id="menu" viewBox="0 0 19 19">
        <path d="M0,15.5h19v-2H0V15.5z M0,10.5h19v-2H0V10.5z M0,3.5v2h19v-2H0z"/>
    </symbol>
    <symbol id="cross" viewBox="0 0 12 12">
        <polygon points="11.5,2.127 10.248,0.875 6.173,4.949 2.096,0.848 0.843,2.1 4.92,6.202 0.871,10.252 2.123,11.505 6.169,7.458 10.191,11.505 11.445,10.252 7.422,6.205"/>
    </symbol>
    <symbol id="plus" viewBox="0 0 16 16">
        <line x1="0" y1="8" x2="16" y2="8" stroke="currentColor" />
        <line x1="8" y1="0" x2="8" y2="16" stroke="currentColor" />
    </symbol>
    <symbol id="minus" viewBox="0 0 16 16">
        <line x1="0" y1="8" x2="16" y2="8" stroke="currentColor" />
    </symbol>
    <symbol id="languages" viewBox="0 0 512 512">
        <path d="M255,0C112.87,0,0,117.257,0,257c0,140.939,114.049,255,255,255c139.899,0,257-113.031,257-255 C512,116.695,396.441,0,255,0z M167.142,48.027C125.596,99.438,107.473,175.418,105.259,242H30.504 C36.175,154.729,90.938,80.761,167.142,48.027z M30.512,272h74.748c2.219,66.423,20.265,141.202,61.248,191.854 C90.675,431.289,36.215,358.205,30.512,272z M240,480.171c-24.922-6.06-48.428-27.117-67.386-60.819 c-22.275-39.6-35.35-91.461-37.339-147.352H240V480.171z M240,242H135.282C139.179,135.078,184.309,45.675,240,31.854V242z M481.492,242h-74.758c-2.735-79.954-27.18-150.22-63.5-194.149C420.327,80.497,475.76,154.575,481.492,242z M270,31.918 C325.539,45.954,372.756,133.689,376.717,242H270V31.918z M270,480.194V271.8h106.716C372.81,378.102,326.305,466.685,270,480.194 z M344.095,463.934c41.954-51.07,60.365-126.142,62.637-192.134h74.751C475.725,358.073,420.698,431.407,344.095,463.934z"/>
    </symbol>
    <symbol id="currencies" viewBox="0 0 16 12">
        <path d="M13.354,10.607 C12.386,10.607 11.161,10.766 9.687,11.263 C8.239,11.751 6.556,11.999 4.972,11.999 C2.898,11.999 0.992,11.573 -0.000,10.707 C-0.000,10.707 -0.000,0.287 -0.000,0.150 C-0.000,0.150 1.898,1.743 4.992,1.743 C5.829,1.743 6.752,1.627 7.750,1.331 C10.690,0.459 11.909,-0.002 13.212,-0.002 C13.985,-0.002 14.788,0.162 16.000,0.498 L16.000,11.123 C16.000,11.123 15.096,10.607 13.354,10.607 ZM13.211,1.110 C12.288,1.110 11.356,1.391 9.500,1.956 C9.055,2.091 8.562,2.241 8.007,2.404 C7.001,2.703 5.987,2.854 4.992,2.854 C3.322,2.854 1.961,2.431 1.000,1.993 L1.000,10.101 C1.854,10.592 3.314,10.887 4.972,10.887 C6.509,10.887 8.080,10.643 9.397,10.199 C10.783,9.732 12.115,9.496 13.354,9.496 C14.001,9.496 14.551,9.560 14.999,9.649 L14.999,1.376 C14.223,1.185 13.700,1.110 13.211,1.110 ZM9.422,6.427 C9.610,6.676 9.704,6.995 9.704,7.383 C9.704,7.818 9.586,8.184 9.349,8.481 C9.113,8.780 8.784,8.962 8.362,9.028 L8.362,9.702 L7.892,9.702 L7.892,9.047 C7.518,8.997 7.215,8.842 6.981,8.583 C6.748,8.324 6.599,7.957 6.534,7.484 L7.380,7.383 C7.414,7.576 7.479,7.742 7.574,7.881 C7.669,8.021 7.775,8.121 7.892,8.184 L7.892,6.675 C7.468,6.539 7.158,6.337 6.960,6.064 C6.762,5.791 6.663,5.461 6.663,5.072 C6.663,4.678 6.775,4.347 6.999,4.080 C7.223,3.812 7.520,3.657 7.892,3.617 L7.892,3.260 L8.362,3.260 L8.362,3.617 C8.705,3.662 8.978,3.792 9.182,4.007 C9.385,4.222 9.514,4.510 9.570,4.870 L8.751,4.988 C8.701,4.705 8.571,4.514 8.362,4.412 L8.362,5.820 C8.880,5.977 9.234,6.180 9.422,6.427 ZM8.362,8.234 C8.524,8.200 8.656,8.117 8.757,7.983 C8.859,7.850 8.909,7.693 8.910,7.514 C8.910,7.354 8.867,7.215 8.782,7.098 C8.696,6.981 8.556,6.892 8.362,6.829 L8.362,8.234 ZM7.892,4.403 C7.765,4.451 7.663,4.532 7.587,4.647 C7.512,4.762 7.474,4.890 7.474,5.029 C7.474,5.156 7.509,5.275 7.578,5.384 C7.647,5.493 7.752,5.582 7.892,5.648 L7.892,4.403 Z"/>
    </symbol>
    <symbol id="promokit" viewBox="0 0 354 354">
        <path fill-rule="evenodd" fill="#333" d="M313.000,229.000 C272.494,229.000 269.939,229.329 263.003,225.541 C259.158,223.441 255.837,220.586 253.040,216.966 C250.243,213.351 248.031,209.091 246.398,204.191 C244.770,199.291 243.951,194.041 243.951,188.441 C243.951,182.611 244.885,177.241 246.748,172.341 C248.616,167.441 251.117,163.186 254.264,159.566 C257.410,155.951 261.026,153.151 265.100,151.166 C269.181,149.186 273.315,148.191 277.510,148.191 C277.510,148.191 314.988,148.141 351.637,148.092 C353.183,157.501 354.000,167.154 354.000,177.000 C354.000,194.922 351.327,212.217 346.374,228.520 C330.233,228.757 313.010,228.983 313.000,229.000 ZM246.511,339.821 L288.347,271.041 C288.347,271.041 308.164,237.121 313.000,229.000 C312.839,229.000 330.153,228.766 346.374,228.520 C331.131,278.695 294.211,319.431 246.511,339.821 ZM242.727,113.016 C233.060,117.801 224.724,124.101 217.733,131.916 C210.741,139.736 205.268,148.601 201.303,158.516 C197.343,168.436 195.360,178.411 195.360,188.441 C195.360,204.541 199.380,219.186 207.420,232.366 C215.461,245.551 226.358,255.061 240.106,260.891 L183.255,353.878 C181.178,353.950 179.095,354.000 177.000,354.000 C97.710,354.000 30.600,301.861 8.076,230.000 C19.043,230.000 25.754,230.000 26.000,230.000 C36.862,230.000 82.000,229.700 82.000,229.700 C93.430,229.700 103.930,227.370 113.500,222.700 C123.065,218.035 131.230,211.850 138.000,204.150 C144.765,196.450 150.015,187.645 153.750,177.725 C157.480,167.810 159.350,157.600 159.350,147.100 C159.350,137.070 157.365,127.095 153.400,117.175 C149.430,107.260 143.950,98.395 136.950,90.575 C129.950,82.760 121.605,76.460 111.925,71.675 C102.240,66.895 91.680,64.500 80.250,64.500 C80.250,64.500 70.498,64.000 54.000,64.000 C49.938,64.000 45.498,64.000 40.766,64.000 C73.233,24.901 122.207,-0.000 177.000,-0.000 C249.465,-0.000 311.748,43.553 339.129,105.906 L274.364,105.841 C262.948,105.841 252.401,108.236 242.727,113.016 ZM89.525,109.475 C93.605,111.225 97.165,113.850 100.200,117.350 C103.230,120.850 105.680,125.110 107.550,130.125 C109.415,135.145 110.350,140.800 110.350,147.100 C110.350,159.470 107.375,169.270 101.425,176.500 C95.475,183.735 87.865,187.000 79.000,187.000 L0.287,187.000 C0.102,183.689 -0.000,180.357 -0.000,177.000 C-0.000,152.091 5.155,128.390 14.441,106.889 L77.100,106.850 C81.300,106.850 85.440,107.725 89.525,109.475 Z"></path>
    </symbol>
    <symbol id="search" viewBox="0 0 512 512">
        <path d="M505.508,475.582l-163.48-163.48c26.405-32.888,42.214-74.647,42.214-120.102c0-106.033-85.967-192-192-192 s-192,85.967-192,192s85.967,192,192,192c45.207,0,86.759-15.635,119.563-41.78l163.532,163.532c8.331,8.331,21.839,8.331,30.17,0 C513.84,497.42,513.84,483.913,505.508,475.582z M42.91,192c0-82.469,66.865-149.333,149.333-149.333S341.577,109.531,341.577,192 c0,41.354-16.816,78.783-43.98,105.826c-0.002,0.002-0.005,0.004-0.007,0.007c-0.001,0.001-0.003,0.003-0.004,0.005 c-27.005,26.879-64.234,43.496-105.342,43.496C109.775,341.333,42.91,274.469,42.91,192z"/>
    </symbol>
    <symbol id="cart" viewBox="0 0 19 19">
        <path d="M18.885,4.776c-0.129-0.197-0.352-0.312-0.586-0.312H8.552c-0.387,0-0.703,0.312-0.703,0.692 s0.316,0.693,0.703,0.693h8.669l-2.601,5.89H6.795L3.924,1.509C3.843,1.208,3.562,1,3.245,1H0.703C0.316,1,0,1.312,0,1.693 c0,0.381,0.316,0.692,0.703,0.692h2.015l2.87,10.231c0.082,0.301,0.363,0.509,0.68,0.509h8.821c0.281,0,0.527-0.161,0.645-0.416 l3.21-7.275C19.037,5.216,19.014,4.973,18.885,4.776z M5.6,14.858c-0.879,0-1.594,0.704-1.594,1.57S4.721,18,5.6,18 s1.593-0.705,1.593-1.571S6.479,14.858,5.6,14.858z M15.452,14.858c-0.879,0.058-1.535,0.82-1.477,1.675 c0.059,0.82,0.75,1.467,1.582,1.467h0.117c0.422-0.035,0.808-0.219,1.089-0.543c0.281-0.312,0.41-0.717,0.387-1.144 C17.092,15.459,16.331,14.801,15.452,14.858z"/>
    </symbol>
</defs>
</svg>